:FULLY-SPECIFIED
:FORCE-ALL-JOINTS-BE-3DOF
:DEGREES
211
root 8.38847 16.4409 -7.77808 8.4552 -0.217863 -5.66545
lfemur -43.2199 0.757484 -12.1457
ltibia 28.683 0 0
lfoot -15.9819 14.5232 0
ltoes -16.1141 0 0
rfemur 6.92268 5.79762 30.753
rtibia 6.27031 0 0
rfoot -14.4008 5.59972 0
rtoes -11.083 0 0
lowerback -7.2239 2.45129 3.10482
upperback -1.17522 2.87796 3.70236
thorax 2.80481 1.45667 2.3823
lowerneck -14.7173 -6.35469 -14.9774
upperneck 14.0297 -8.13188 15.5049
head 8.04545 -3.36974 6.75812
lclavicle -1.52079e-014 -1.41073e-014 0
lhumerus -50.6934 -9.86343 96.0363
lradius 26.7272 0 0
lwrist 7.91913 0 0
lhand -14.5904 -29.6464 0
lfingers 7.12502 0 0
lthumb 11.5597 0.0134265 0
rclavicle -1.52079e-014 -1.41073e-014 0
rhumerus -38.6523 12.5393 -83.1071
rradius 51.8153 0 0
rwrist -25.7535 0 0
rhand -31.8765 -28.2513 0
rfingers 7.12502 0 0
rthumb -5.12951 -58.1685 0
212
root 8.39983 16.4322 -7.63827 8.4993 -0.440289 -5.80869
lfemur -43.557 0.493399 -11.8271
ltibia 27.5366 0 0
lfoot -15.9965 14.6224 0
ltoes -16.5235 0 0
rfemur 7.86065 5.86077 30.882
rtibia 5.37455 0 0
rfoot -14.1496 5.77239 0
rtoes -11.0009 0 0
lowerback -7.35287 2.49329 3.20589
upperback -1.14327 2.91939 3.72355
thorax 2.91197 1.47756 2.3574
lowerneck -14.7816 -6.32995 -14.94
upperneck 14.069 -8.09446 15.4701
head 8.05987 -3.34987 6.74452
lclavicle -1.54988e-014 -1.39662e-014 0
lhumerus -50.745 -9.79659 96.0124
lradius 26.4885 0 0
lwrist 7.54077 0 0
lhand -14.5331 -29.889 0
lfingers 7.12502 0 0
lthumb 11.6149 -0.232122 0
rclavicle -1.54988e-014 -1.39662e-014 0
rhumerus -38.6353 12.6985 -83.3293
rradius 52.0677 0 0
rwrist -25.8918 0 0
rhand -31.832 -28.3285 0
rfingers 7.12502 0 0
rthumb -5.08657 -58.2468 0
213
root 8.4112 16.4235 -7.49846 8.5434 -0.662716 -5.95193
lfemur -43.894 0.229314 -11.5085
ltibia 26.3902 0 0
lfoot -16.011 14.7215 0
ltoes -16.9329 0 0
rfemur 8.79863 5.92393 31.0111
rtibia 4.47879 0 0
rfoot -13.8985 5.94506 0
rtoes -10.9188 0 0
lowerback -7.48184 2.53529 3.30696
upperback -1.11133 2.96082 3.74475
thorax 3.01912 1.49846 2.3325
lowerneck -14.8459 -6.30521 -14.9026
upperneck 14.1084 -8.05704 15.4353
head 8.07428 -3.33001 6.73092
lclavicle -1.57898e-014 -1.38252e-014 0
lhumerus -50.7967 -9.72975 95.9885
lradius 26.2498 0 0
lwrist 7.16241 0 0
lhand -14.4759 -30.1316 0
lfingers 7.12502 0 0
lthumb 11.6702 -0.47767 0
rclavicle -1.57898e-014 -1.38252e-014 0
rhumerus -38.6183 12.8577 -83.5514
rradius 52.3201 0 0
rwrist -26.03 0 0
rhand -31.7876 -28.4056 0
rfingers 7.12502 0 0
rthumb -5.04363 -58.3251 0
214
root 8.42256 16.4149 -7.35864 8.5875 -0.885143 -6.09517
lfemur -44.2311 -0.0347706 -11.1898
ltibia 25.2438 0 0
lfoot -16.0255 14.8207 0
ltoes -17.3422 0 0
rfemur 9.7366 5.98708 31.1401
rtibia 3.58303 0 0
rfoot -13.6473 6.11773 0
rtoes -10.8367 0 0
lowerback -7.61081 2.57729 3.40802
upperback -1.07938 3.00224 3.76594
thorax 3.12628 1.51936 2.3076
lowerneck -14.9102 -6.28047 -14.8652
upperneck 14.1477 -8.01961 15.4005
head 8.0887 -3.31015 6.71732
lclavicle -1.60807e-014 -1.36841e-014 0
lhumerus -50.8483 -9.66291 95.9646
lradius 26.0111 0 0
lwrist 6.78405 0 0
lhand -14.4186 -30.3742 0
lfingers 7.12502 0 0
lthumb 11.7254 -0.723218 0
rclavicle -1.60807e-014 -1.36841e-014 0
rhumerus -38.6013 13.0169 -83.7735
rradius 52.5726 0 0
rwrist -26.1683 0 0
rhand -31.7431 -28.4828 0
rfingers 7.12502 0 0
rthumb -5.00069 -58.4034 0
215
root 8.43393 16.4062 -7.21883 8.6316 -1.10757 -6.2384
lfemur -44.5681 -0.298855 -10.8712
ltibia 24.0974 0 0
lfoot -16.0401 14.9199 0
ltoes -17.7516 0 0
rfemur 10.6746 6.05024 31.2691
rtibia 2.68727 0 0
rfoot -13.3961 6.29039 0
rtoes -10.7545 0 0
lowerback -7.73978 2.61929 3.50909
upperback -1.04743 3.04367 3.78713
thorax 3.23344 1.54026 2.2827
lowerneck -14.9744 -6.25572 -14.8278
upperneck 14.1871 -7.98219 15.3656
head 8.10311 -3.29029 6.70371
lclavicle -1.63717e-014 -1.3543e-014 0
lhumerus -50.9 -9.59607 95.9407
lradius 25.7725 0 0
lwrist 6.40568 0 0
lhand -14.3614 -30.6168 0
lfingers 7.12502 0 0
lthumb 11.7806 -0.968766 0
rclavicle -1.63717e-014 -1.3543e-014 0
rhumerus -38.5843 13.1761 -83.9957
rradius 52.825 0 0
rwrist -26.3065 0 0
rhand -31.6986 -28.56 0
rfingers 7.12502 0 0
rthumb -4.95775 -58.4817 0
216
root 8.44529 16.3975 -7.07902 8.6757 -1.33 -6.38164
lfemur -44.9052 -0.56294 -10.5526
ltibia 22.951 0 0
lfoot -16.0546 15.0191 0
ltoes -18.161 0 0
rfemur 11.6126 6.11339 31.3981
rtibia 1.79152 0 0
rfoot -13.1449 6.46306 0
rtoes -10.6724 0 0
lowerback -7.86875 2.6613 3.61016
upperback -1.01549 3.0851 3.80832
thorax 3.3406 1.56115 2.2578
lowerneck -15.0387 -6.23098 -14.7904
upperneck 14.2264 -7.94477 15.3308
head 8.11753 -3.27042 6.69011
lclavicle -1.66627e-014 -1.34019e-014 0
lhumerus -50.9516 -9.52923 95.9167
lradius 25.5338 0 0
lwrist 6.02732 0 0
lhand -14.3041 -30.8593 0
lfingers 7.12502 0 0
lthumb 11.8358 -1.21431 0
rclavicle -1.66627e-014 -1.34019e-014 0
rhumerus -38.5673 13.3354 -84.2178
rradius 53.0774 0 0
rwrist -26.4448 0 0
rhand -31.6541 -28.6372 0
rfingers 7.12502 0 0
rthumb -4.91482 -58.56 0
217
root 8.45666 16.3889 -6.9392 8.7198 -1.55242 -6.52488
lfemur -45.2422 -0.827025 -10.234
ltibia 21.8046 0 0
lfoot -16.0692 15.1182 0
ltoes -18.5703 0 0
rfemur 12.5505 6.17655 31.5272
rtibia 0.895758 0 0
rfoot -12.8937 6.63573 0
rtoes -10.5903 0 0
lowerback -7.99772 2.7033 3.71123
upperback -0.983541 3.12652 3.82952
thorax 3.44775 1.58205 2.2329
lowerneck -15.103 -6.20624 -14.753
upperneck 14.2658 -7.90734 15.296
head 8.13194 -3.25056 6.67651
lclavicle -1.69536e-014 -1.32609e-014 0
lhumerus -51.0033 -9.46239 95.8928
lradius 25.2951 0 0
lwrist 5.64896 0 0
lhand -14.2469 -31.1019 0
lfingers 7.12502 0 0
lthumb 11.8911 -1.45986 0
rclavicle -1.69536e-014 -1.32609e-014 0
rhumerus -38.5503 13.4946 -84.44
rradius 53.3299 0 0
rwrist -26.583 0 0
rhand -31.6097 -28.7144 0
rfingers 7.12502 0 0
rthumb -4.87188 -58.6383 0
